<svg xmlns="http://www.w3.org/2000/svg" viewBox="0 0 1600 900" width="1600" height="900" preserveAspectRatio="xMidYMid slice">
  <defs>
    <linearGradient id="bg" x1="0" y1="0" x2="0" y2="1">
      <stop offset="0" stop-color="#2a1505"/><stop offset="0.5" stop-color="#1a0a05"/><stop offset="1" stop-color="#0a0503"/>
    </linearGradient>
    <radialGradient id="vig" cx="0.5" cy="0.5" r="0.8">
      <stop offset="0.5" stop-color="black" stop-opacity="0"/>
      <stop offset="1" stop-color="black" stop-opacity="0.7"/>
    </radialGradient>
    <filter id="grain">
      <feTurbulence type="fractalNoise" baseFrequency="0.9" numOctaves="2" seed="3"/>
      <feColorMatrix values="0 0 0 0 1   0 0 0 0 1   0 0 0 0 1   0 0 0 0.08 0"/>
    </filter>
  </defs>
  <rect width="1600" height="900" fill="url(#bg)"/>
  <path d="M0,300 L400,400 L400,900 L0,900 Z" fill="#1a0a05" opacity="0.7"/>
  <path d="M1600,300 L1200,400 L1200,900 L1600,900 Z" fill="#1a0a05" opacity="0.7"/>
  <ellipse cx="800" cy="600" rx="200" ry="100" fill="#f2b95c" opacity="0.3"/>
  <ellipse cx="800" cy="600" rx="350" ry="180" fill="#f2b95c" opacity="0.2"/>
  <ellipse cx="800" cy="600" rx="500" ry="260" fill="#f2b95c" opacity="0.1"/>
  <path d="M0,700 L1600,700 L1600,900 L0,900 Z" fill="#0a0503" opacity="0.8"/>
  <circle cx="200" cy="200" r="6" fill="#f2b95c" opacity="0.4"/>
  <circle cx="1400" cy="200" r="6" fill="#f2b95c" opacity="0.4"/>
  <circle cx="500" cy="150" r="5" fill="#f2b95c" opacity="0.5"/>
  <circle cx="1100" cy="150" r="5" fill="#f2b95c" opacity="0.5"/>
  <rect width="1600" height="900" fill="url(#vig)"/>
  <rect width="1600" height="900" filter="url(#grain)" opacity="0.5"/>
</svg>
